HIERARCHY
ROOT Hips
{
	OFFSET 0.000000 0.000000 0.000000
	CHANNELS 6 Xposition Yposition Zposition Xrotation Yrotation Zrotation
	JOINT LeftUpLeg_virtual
	{
		OFFSET 0.000000 0.000000 0.000000
		CHANNELS 3 Xrotation Yrotation Zrotation
		JOINT LeftUpLeg
		{
			OFFSET 10.205400 -3.823500 0.155100
			CHANNELS 3 Xrotation Yrotation Zrotation
			JOINT LeftLeg
			{
				OFFSET 0.708757 -12.982077 0.567790
				CHANNELS 3 Xrotation Yrotation Zrotation
				JOINT LeftFoot
				{
					OFFSET -0.708756 -10.717838 -2.184338
					CHANNELS 3 Xrotation Yrotation Zrotation
					JOINT LeftToeBase
					{
						OFFSET 0.108149 -7.191104 7.560241
						CHANNELS 3 Xrotation Yrotation Zrotation
						JOINT LeftToe_End
						{
							OFFSET 0.070230 0.081724 4.490308
							CHANNELS 3 Xrotation Yrotation Zrotation
							End Site
							{
								OFFSET 0 0 0
							}
						}
					}
				}
			}
		}
	}
	JOINT RightUpLeg_virtual
	{
		OFFSET 0.000000 0.000000 0.000000
		CHANNELS 3 Xrotation Yrotation Zrotation
		JOINT RightUpLeg
		{
			OFFSET -10.205400 -3.823500 0.005500
			CHANNELS 3 Xrotation Yrotation Zrotation
			JOINT RightLeg
			{
				OFFSET -0.708756 -12.982134 0.610632
				CHANNELS 3 Xrotation Yrotation Zrotation
				JOINT RightFoot
				{
					OFFSET 0.708754 -10.717769 -1.945823
					CHANNELS 3 Xrotation Yrotation Zrotation
					JOINT RightToeBase
					{
						OFFSET -0.108140 -7.191069 7.372968
						CHANNELS 3 Xrotation Yrotation Zrotation
						JOINT RightToe_End
						{
							OFFSET -0.070227 0.081735 4.479403
							CHANNELS 3 Xrotation Yrotation Zrotation
							End Site
							{
								OFFSET 0 0 0
							}
						}
					}
				}
			}
		}
	}
	JOINT Spine_virtual
	{
		OFFSET 0.000000 0.000000 0.000000
		CHANNELS 3 Xrotation Yrotation Zrotation
		JOINT Spine
		{
			OFFSET 0.000000 6.876099 0.125700
			CHANNELS 3 Xrotation Yrotation Zrotation
			JOINT Spine1
			{
				OFFSET 0.000000 5.730043 0.104720
				CHANNELS 3 Xrotation Yrotation Zrotation
				JOINT Spine1_split
				{
					OFFSET 0.000000 5.730043 0.104720
					CHANNELS 3 Xrotation Yrotation Zrotation
					JOINT Spine2
					{
						OFFSET 0.000000 5.730043 0.104720
						CHANNELS 3 Xrotation Yrotation Zrotation
						JOINT Neck_virtual
						{
							OFFSET 0.000000 0.000000 0.000000
							CHANNELS 3 Xrotation Yrotation Zrotation
							JOINT Neck
							{
								OFFSET 0.000000 10.314075 0.188496
								CHANNELS 3 Xrotation Yrotation Zrotation
								JOINT Head
								{
									OFFSET 0.000000 7.643700 -2.377400
									CHANNELS 3 Xrotation Yrotation Zrotation
									JOINT HeadTop_End
									{
										OFFSET 0.000000 43.788605 -13.619600
										CHANNELS 3 Xrotation Yrotation Zrotation
										End Site
										{
											OFFSET 0 0 0
										}
									}
								}
							}
						}
						JOINT LeftShoulder_virtual
						{
							OFFSET 0.000000 0.000000 0.000000
							CHANNELS 3 Xrotation Yrotation Zrotation
							JOINT LeftShoulder
							{
								OFFSET 2.196100 4.412489 0.087492
								CHANNELS 3 Xrotation Yrotation Zrotation
								JOINT LeftShoulder_split
								{
									OFFSET 2.196100 4.412489 0.087492
									CHANNELS 3 Xrotation Yrotation Zrotation
									JOINT LeftArm
									{
										OFFSET 8.771219 -2.981674 -0.026999
										CHANNELS 3 Xrotation Yrotation Zrotation
										JOINT LeftForeArm
										{
											OFFSET 8.512804 0.000000 -0.000000
											CHANNELS 3 Xrotation Yrotation Zrotation
											JOINT LeftHand
											{
												OFFSET 18.484802 0.000000 -0.000000
												CHANNELS 3 Xrotation Yrotation Zrotation
												End Site
												{
													OFFSET 0 0 0
												}
											}
										}
									}
								}
							}
						}
						JOINT RightShoulder_virtual
						{
							OFFSET 0.000000 0.000000 0.000000
							CHANNELS 3 Xrotation Yrotation Zrotation
							JOINT RightShoulder
							{
								OFFSET -2.196100 4.412496 0.070690
								CHANNELS 3 Xrotation Yrotation Zrotation
								JOINT RightShoulder_split
								{
									OFFSET -2.196100 4.412496 0.070690
									CHANNELS 3 Xrotation Yrotation Zrotation
									JOINT RightArm
									{
										OFFSET -8.771282 -2.981682 -0.094208
										CHANNELS 3 Xrotation Yrotation Zrotation
										JOINT RightForeArm
										{
											OFFSET -8.494598 0.000000 0.000000
											CHANNELS 3 Xrotation Yrotation Zrotation
											JOINT RightHand
											{
												OFFSET -18.483803 0.000000 0.000001
												CHANNELS 3 Xrotation Yrotation Zrotation
												End Site
												{
													OFFSET 0 0 0
												}
											}
										}
									}
								}
							}
						}
					}
				}
			}
		}
	}
}
MOTION
Frames: 11
Frame Time: 0.03333333
-0.219668 28.590492 -5.492216 0.000000 0.000000 0.000000 5.614442 -57.148534 6.462453 -37.240169 7.675899 32.331954 44.502992 -19.215769 0.793979 -7.840392 8.115257 -29.303421 0.582757 -4.954213 1.671288 0.000000 0.000000 0.000000 4.618006 -54.384514 5.344905 -29.773969 -21.343045 -35.357256 36.678399 24.704202 -1.367724 -18.516387 -15.757721 28.623069 12.197107 9.655327 -17.375040 0.000000 0.000000 0.000000 -0.770421 -49.215188 2.637373 12.878030 4.629426 1.333338 8.942279 -6.845603 -0.924387 0.213616 0.304398 -0.109101 0.000000 0.000000 0.000000 10.473421 -2.910580 -2.410483 16.406970 36.506156 -3.349150 17.031095 51.338717 -21.573494 0.000000 0.000000 0.000000 7.480943 -6.597772 -2.424802 2.963291 -9.641651 -10.331142 -2.048351 -3.611630 -3.589923 -40.351064 0.663563 -30.382679 37.745541 -26.612748 25.474213 0.000000 0.000000 0.000000 6.475509 -5.574255 -0.525044 -8.687616 10.859682 13.012676 12.581779 -2.584406 -3.207732 10.319683 -25.667586 51.894753 -14.858605 46.501403 8.567374 0.000000 0.000000 0.000000 
-0.313484 28.629593 -5.400938 0.000000 0.000000 0.000000 5.289335 -56.310682 5.884192 -36.756516 7.929591 32.676185 44.978852 -19.216799 0.866665 -7.389220 7.807487 -29.261391 0.065800 -5.062183 2.186440 0.000000 0.000000 0.000000 4.424184 -54.072750 4.968422 -29.330666 -21.324383 -34.963451 35.586389 24.593600 -1.276670 -18.167738 -15.636342 29.387097 10.997078 9.877029 -17.284140 0.000000 0.000000 0.000000 -1.546420 -49.406781 1.660090 12.575257 4.153754 1.574892 9.015814 -6.648451 -0.716744 -0.055936 0.293077 -0.079942 0.000000 0.000000 0.000000 10.165037 -2.572799 -2.547674 17.420049 35.895608 -3.225223 14.544709 52.172701 -20.252614 0.000000 0.000000 0.000000 7.401263 -6.368754 -2.438166 2.605862 -10.203181 -10.227223 -0.219718 -2.815915 -4.388727 -38.735260 4.094999 -30.201833 37.484536 -23.588195 24.616147 0.000000 0.000000 0.000000 6.147044 -5.166966 -0.343234 -9.524943 9.095073 12.619397 14.043001 -7.782948 -0.910185 6.720578 -24.732228 49.223616 -12.062909 42.887157 7.143098 0.000000 0.000000 0.000000 
-0.419033 28.695541 -5.276346 0.000000 0.000000 0.000000 4.836388 -55.803533 5.008156 -35.840461 8.518078 33.014440 44.895151 -18.770695 0.855373 -7.458704 7.777237 -28.154791 -1.251702 -5.176790 2.678057 0.000000 0.000000 0.000000 4.406448 -53.736896 4.430644 -28.536076 -21.164642 -34.444142 34.411548 24.632070 -1.244507 -17.659111 -15.623617 30.520458 9.924060 10.105086 -16.865636 0.000000 0.000000 0.000000 -1.345041 -49.311797 0.855583 11.688405 3.147510 1.571784 8.620323 -6.301016 -0.109231 -0.205781 0.348691 0.053368 0.000000 0.000000 0.000000 9.781363 -2.352034 -1.850889 17.278183 34.506881 -2.541662 14.028136 51.680196 -22.653304 0.000000 0.000000 0.000000 6.763145 -6.040615 -1.875336 1.908512 -11.160640 -11.293959 0.323870 -2.812708 -3.574435 -33.538606 9.114305 -29.494495 38.847141 -22.413250 25.223042 0.000000 0.000000 0.000000 5.506478 -4.945323 0.233640 -10.711488 6.321402 11.886220 13.874391 -11.385136 0.355112 0.093380 -26.662996 46.707187 -7.368900 40.946571 4.756035 0.000000 0.000000 0.000000 
-0.512679 28.759886 -5.141903 0.000000 0.000000 0.000000 4.396140 -55.704516 4.054653 -34.891905 9.343756 33.281774 44.577660 -17.853215 0.751248 -8.224418 7.997998 -26.081861 -2.144885 -5.210703 2.831506 0.000000 0.000000 0.000000 4.462273 -53.513333 3.825682 -27.627048 -20.896723 -33.961118 33.478118 24.813153 -1.346212 -17.521327 -15.896201 31.768217 9.531898 10.267487 -16.310951 0.000000 0.000000 0.000000 0.035787 -48.949036 0.515679 10.337852 1.747791 1.356624 7.830431 -5.858658 0.691047 -0.187625 0.237943 0.108625 0.000000 0.000000 0.000000 9.281217 -2.261529 -0.555236 15.929832 32.512643 -1.198802 15.510624 49.533550 -28.347356 0.000000 0.000000 0.000000 5.733041 -5.666410 -0.951720 1.024440 -12.206319 -13.348585 0.852991 -3.321550 -1.592897 -26.225579 15.253764 -28.472380 41.631581 -23.716964 27.280641 0.000000 0.000000 0.000000 4.819916 -4.870723 1.001536 -12.039382 3.419564 10.092423 11.205983 -11.436805 0.017650 -9.431549 -31.898220 43.870920 -1.421411 41.492907 1.717994 0.000000 0.000000 0.000000 
-0.557077 28.788013 -4.994434 0.000000 0.000000 0.000000 4.127886 -55.591378 3.251864 -34.476954 10.020106 33.460694 44.581037 -16.941733 0.745974 -9.146330 8.026639 -24.125355 -1.809029 -5.097564 2.610710 0.000000 0.000000 0.000000 4.421548 -53.344242 3.241369 -26.766866 -20.564246 -33.627699 33.241202 25.046550 -1.691746 -18.055591 -16.638524 32.893587 9.743197 10.387625 -15.788074 0.000000 0.000000 0.000000 2.225577 -48.285264 0.645647 8.673844 0.142915 0.950600 6.710146 -5.472071 1.445632 -0.006518 -0.101752 0.077558 0.000000 0.000000 0.000000 8.593447 -2.289857 0.926695 13.465697 30.073374 0.813067 18.149339 45.718493 -36.059523 0.000000 0.000000 0.000000 4.475216 -5.376678 -0.010156 0.112806 -13.112332 -15.819427 1.831424 -4.320117 0.947144 -18.733430 22.013937 -27.200443 45.432854 -27.515028 30.499001 0.000000 0.000000 0.000000 4.198741 -4.909613 1.653524 -13.490202 0.880914 6.637733 6.457792 -9.924991 1.173828 -22.098153 -40.053291 38.754473 5.367415 45.936970 -2.063658 0.000000 0.000000 0.000000 
-0.509280 28.741800 -4.932337 0.000000 0.000000 0.000000 4.097737 -55.062629 2.747850 -35.066721 10.132722 33.512856 45.190123 -16.323580 0.938468 -9.820175 7.469651 -22.876602 -0.766852 -4.907932 2.517644 0.000000 0.000000 0.000000 4.332620 -52.947217 2.800137 -26.021971 -20.282658 -33.514212 33.987554 25.306220 -2.306634 -19.095462 -17.860827 33.900213 9.974058 10.527465 -15.469690 0.000000 0.000000 0.000000 4.484063 -47.082587 1.103724 7.019139 -1.386660 0.450656 5.436903 -5.182293 1.844950 0.059650 -0.445330 0.043504 0.000000 0.000000 0.000000 7.816848 -2.387269 2.084196 10.299596 27.311722 3.407750 20.859099 40.378122 -44.051285 0.000000 0.000000 0.000000 3.296915 -5.198210 0.625292 -0.627053 -13.673908 -18.072583 3.070115 -5.208254 3.058319 -13.485653 27.964821 -25.285657 49.481913 -33.215189 34.212909 0.000000 0.000000 0.000000 3.632700 -4.968366 1.895078 -15.065386 -1.104222 0.782051 -0.074453 -8.350621 4.192071 -38.077400 -48.088186 28.752108 13.609828 55.955324 -7.818189 0.000000 0.000000 0.000000 
-0.370965 28.615887 -4.973906 0.000000 0.000000 0.000000 4.080726 -53.795407 2.446766 -36.607820 9.623997 33.408477 46.290504 -16.180652 1.338038 -10.085498 6.201152 -22.632221 0.093033 -4.727125 2.888203 0.000000 0.000000 0.000000 4.225745 -52.042401 2.530889 -25.471758 -20.141389 -33.678474 35.669696 25.607108 -3.133694 -20.284011 -19.382289 34.998446 9.765638 10.705395 -15.398079 0.000000 0.000000 0.000000 6.293121 -45.431201 1.647594 5.589385 -2.481442 0.039007 4.194336 -5.001203 1.748281 -0.007917 -0.746703 0.014970 0.000000 0.000000 0.000000 6.981535 -2.541499 2.642247 7.110003 24.380992 6.283685 22.066782 34.056577 -50.160663 0.000000 0.000000 0.000000 2.296604 -5.044012 0.767518 -1.029961 -13.628744 -19.551075 4.188354 -6.038648 4.210920 -11.743827 31.785655 -22.377687 52.745316 -39.637534 37.416736 0.000000 0.000000 0.000000 3.175435 -5.056027 1.517938 -16.585887 -1.899081 -7.300252 -7.672667 -9.450281 7.852038 -57.308217 -51.934624 13.175646 29.219624 71.473750 -21.478930 0.000000 0.000000 0.000000 
-0.135802 28.411486 -5.020750 0.000000 0.000000 0.000000 4.064901 -51.851907 2.323821 -38.940356 8.518620 33.041665 47.746157 -16.401244 1.892665 -9.870218 4.418233 -23.285479 0.737195 -4.582932 3.447376 0.000000 0.000000 0.000000 4.221245 -50.507258 2.449724 -25.107027 -20.277602 -34.149621 37.990557 25.914457 -4.079117 -21.505192 -20.985842 35.983182 9.023005 10.897666 -15.588653 0.000000 0.000000 0.000000 7.034460 -43.483467 1.921113 4.657946 -2.835391 -0.168742 3.208178 -4.896715 1.182144 -0.056683 -0.908376 0.063536 0.000000 0.000000 0.000000 6.185461 -2.750962 2.503296 4.226024 21.553572 9.234024 20.777265 28.009602 -53.433181 0.000000 0.000000 0.000000 1.531337 -4.895793 0.408222 -1.006236 -12.926201 -19.826265 4.798615 -6.574814 4.011454 -13.117957 32.039458 -18.396645 53.676855 -45.641496 38.586515 0.000000 0.000000 0.000000 2.801643 -5.197269 0.582796 -17.655587 -0.886183 -16.361667 -13.643149 -12.931069 9.581244 -73.499071 -49.116187 -1.685571 100.400776 82.442924 -91.093666 0.000000 0.000000 0.000000 
0.174128 28.135086 -4.999023 0.000000 0.000000 0.000000 4.058054 -49.546343 2.345463 -41.701665 6.983436 32.314677 49.362518 -16.555771 2.473342 -9.173811 2.471644 -24.302298 1.355743 -4.458058 3.797650 0.000000 0.000000 0.000000 4.240268 -48.554042 2.426269 -24.976057 -20.858547 -34.916374 40.601448 26.130304 -4.963622 -22.751189 -22.443158 36.366403 8.300235 11.028761 -16.063898 0.000000 0.000000 0.000000 6.560898 -41.480890 1.882879 4.429555 -2.210203 -0.087877 2.659998 -4.862325 0.328121 -0.116929 -0.810280 0.204446 0.000000 0.000000 0.000000 5.595854 -2.870586 1.791061 1.949978 19.167847 11.958842 16.629345 23.480529 -53.659363 0.000000 0.000000 0.000000 1.116295 -4.697333 -0.309886 -0.618039 -11.868776 -19.063953 5.193878 -6.876814 2.963245 -15.927417 27.501125 -14.101623 50.976318 -49.997336 36.495398 0.000000 0.000000 0.000000 2.507421 -5.255130 -0.609427 -17.546995 2.121099 -24.781175 -16.314306 -15.569703 7.654743 -81.113202 -40.554962 -9.174493 161.151647 76.156609 -150.467073 0.000000 0.000000 0.000000 
0.504519 27.839165 -4.919882 0.000000 0.000000 0.000000 3.993383 -47.355973 2.442484 -44.474066 5.387597 31.335149 50.858808 -16.467163 2.977492 -8.077074 0.655330 -25.357752 1.686252 -4.348373 3.797573 0.000000 0.000000 0.000000 4.160836 -46.612657 2.443184 -25.283523 -21.895688 -36.057395 43.201264 26.258833 -5.656539 -24.067244 -23.490253 35.988045 7.999165 11.073477 -16.825990 0.000000 0.000000 0.000000 5.304478 -39.635707 1.674094 4.851905 -0.549509 0.236059 2.603348 -4.815058 -0.578154 0.079904 -0.620580 0.314281 0.000000 0.000000 0.000000 5.242857 -2.771726 0.808434 0.484881 17.366967 14.125532 9.697505 20.833016 -50.991880 0.000000 0.000000 0.000000 1.104090 -4.359561 -1.170463 0.010345 -10.906047 -17.827521 4.999266 -7.373617 2.051171 -18.117041 18.342845 -10.555070 45.269790 -51.959609 31.699086 0.000000 0.000000 0.000000 2.417366 -5.074578 -1.716932 -15.752264 6.956581 -30.803296 -16.040484 -15.860637 4.079134 -81.558415 -28.681067 -9.394710 173.669758 74.830992 -161.759698 0.000000 0.000000 0.000000 
0.838000 27.558558 -4.825344 0.000000 0.000000 0.000000 3.928030 -45.817998 2.691356 -46.776185 4.138970 30.172910 51.889108 -15.927345 3.267575 -6.839155 -0.815016 -25.938118 1.338228 -4.288826 3.539788 0.000000 0.000000 0.000000 3.840338 -45.162782 2.520895 -26.290283 -23.175918 -37.622980 45.647496 26.361930 -6.132618 -25.157678 -23.927211 35.340819 7.819399 11.086647 -17.938198 0.000000 0.000000 0.000000 3.716842 -37.885857 1.527486 5.807524 1.991788 0.597810 3.021018 -4.652679 -1.398921 0.293537 -0.451372 0.403129 0.000000 0.000000 0.000000 5.198651 -2.317421 -0.160372 -0.009925 16.487692 15.395851 0.601657 19.446425 -45.560750 0.000000 0.000000 0.000000 1.592538 -3.913402 -1.980960 0.763251 -10.263514 -16.778879 4.323672 -8.014644 1.177759 -19.124164 5.684775 -8.085762 38.887747 -51.935000 26.573725 0.000000 0.000000 0.000000 2.506883 -4.582696 -2.497867 -12.429268 12.905999 -33.577517 -14.385200 -12.974682 0.621036 -77.942185 -15.323019 -4.652621 -177.882510 82.308533 -169.331878 0.000000 0.000000 0.000000 
